<svg id="Layer_3" enable-background="new 0 0 64 64" height="512" viewBox="0 0 64 64" width="512" xmlns="http://www.w3.org/2000/svg"><g><path d="m27 5h-8c-1.654 0-3 1.346-3 3v4c0 .552.447 1 1 1h12c.553 0 1-.448 1-1v-4c0-1.654-1.346-3-3-3zm1 6h-10v-3c0-.551.448-1 1-1h8c.552 0 1 .449 1 1z"/><circle cx="44" cy="13" r="2"/><circle cx="38" cy="13" r="2"/><path d="m38 5h2v4h-2z"/><path d="m34 5h2v4h-2z"/><path d="m42 5h2v4h-2z"/><path d="m57 38c0-2.333-3.955-3.821-9-4.732v-2.268c0-1.654-1.346-3-3-3v-5.184c1.161-.414 2-1.514 2-2.816v-1c1.654 0 3-1.346 3-3v-8c0-3.86-3.141-7-7-7h-24c-3.859 0-7 3.14-7 7v8c0 1.654 1.346 3 3 3h16v1c0 1.302.839 2.402 2 2.816v5.184c-1.654 0-3 1.346-3 3v1.022c-8.939.179-23 1.577-23 5.978 0 .366.108.708.291 1.033l6.394 19.18c.953 2.864 3.622 4.787 6.639 4.787h23.352c3.018 0 5.687-1.923 6.64-4.786l6.394-19.181c.182-.325.29-.667.29-1.033zm-5.218 9.493-.678.507c-1.721 1.29-4.282 1.291-6.001 0l-.8-.599c-2.407-1.807-5.996-1.805-8.399 0l-.8.6c-1.721 1.29-4.282 1.291-6.001 0l-.8-.599c-2.406-1.807-5.995-1.805-8.399 0l-.8.6c-1.721 1.29-4.282 1.291-6.001 0l-.799-.599c-.049-.037-.101-.068-.151-.104l-2.061-6.182c5.16 2.211 15.589 2.883 21.908 2.883s16.748-.672 21.908-2.885zm-5.782-16.493v1.943c-.331-.048-.664-.094-1-.138v-2.805c.552 0 1 .449 1 1zm-4 3.457c.347.034.666.074 1 .111v3.432c-.552 0-1-.449-1-1zm1-1.886c-.333-.035-.666-.068-1-.1v-1.471c0-.551.448-1 1-1zm2 2.247c.335.047.681.092 1 .141v2.041c0 .551-.448 1-1 1zm-31-18.818v-8c0-2.757 2.243-5 5-5h24c2.757 0 5 2.243 5 5v8c0 .551-.448 1-1 1h-32c-.552 0-1-.449-1-1zm31 3v1c0 .551-.448 1-1 1h-10c-.552 0-1-.449-1-1v-1zm-10 4h8v5c-1.654 0-3 1.346-3 3v1.303c-.674-.05-1.342-.093-2-.129v-1.174c0-1.654-1.346-3-3-3zm-3 11c.344 0 .664.009 1 .012v3.988c-.552 0-1-.449-1-1zm3 .04c.342.009.666.023 1 .035v2.925c0 .551-.448 1-1 1zm0-1.994v-2.046c.552 0 1 .449 1 1v1.08c-.338-.013-.672-.024-1-.034zm-3-1.046c0-.551.448-1 1-1v2.006c-.342-.004-.678-.006-1-.006zm-2 3.023v2.977c0 1.654 1.346 3 3 3h2c1.654 0 3-1.346 3-3v-2.838c.684.037 1.357.077 2 .125v2.713c0 1.654 1.346 3 3 3h2c1.654 0 3-1.346 3-3v-1.69c4.466.864 6.81 1.949 6.971 2.614l-.127.381c-1.111 1.31-8.839 3.695-22.844 3.695s-21.733-2.385-22.844-3.694l-.127-.381c.285-1.176 7.403-3.673 20.971-3.902zm18.419 23.559c-.682 2.044-2.588 3.418-4.743 3.418h-23.352c-2.155 0-4.062-1.374-4.743-3.419l-2.422-7.265c2.285 1.024 5.125.798 7.143-.716l.801-.6c1.717-1.29 4.279-1.291 6 0l.799.599c2.405 1.805 5.993 1.807 8.4 0l.801-.6c1.717-1.29 4.279-1.291 6 0l.799.599c1.203.903 2.694 1.4 4.2 1.4.929 0 1.845-.21 2.7-.568z"/><path d="m28.293 55.292c-.456.457-1.063.708-1.707.708h-.172c-.645 0-1.251-.251-1.707-.708-.834-.833-1.942-1.292-3.121-1.292h-.172c-1.179 0-2.287.459-3.121 1.293l-1 1 1.414 1.414 1-1c.456-.456 1.063-.707 1.707-.707h.172c.645 0 1.251.251 1.707.708.834.833 1.942 1.292 3.121 1.292h.172c1.179 0 2.287-.459 3.121-1.293l1-1-1.414-1.414z"/><path d="m45.293 53.292c-.456.457-1.063.708-1.707.708h-.172c-.645 0-1.251-.251-1.707-.708-.834-.833-1.942-1.292-3.121-1.292h-.172c-1.179 0-2.287.459-3.121 1.293l-1 1 1.414 1.414 1-1c.456-.456 1.063-.707 1.707-.707h.172c.645 0 1.251.251 1.707.708.834.833 1.942 1.292 3.121 1.292h.172c1.179 0 2.287-.459 3.121-1.293l1-1-1.414-1.414z"/><path d="m47 26c1.654 0 3 1.346 3 3h2c0-2.757-2.243-5-5-5z"/><path d="m31 26v-2c-2.757 0-5 2.243-5 5h2c0-1.654 1.346-3 3-3z"/></g></svg>