<svg height="512" viewBox="0 0 128 128" width="512" xmlns="http://www.w3.org/2000/svg"><path d="m123.25 9.46a4.722 4.722 0 0 0 -4.7-4.71 4.647 4.647 0 0 0 -3.322 1.383l-5.674 5.673c-3.538-1.736-7.275-1.579-9.589.736s-2.471 6.053-.736 9.59l-1.96 1.96c-.467-.356-.918-.729-1.4-1.063a4.836 4.836 0 0 0 -3.848-.727 4.74 4.74 0 0 0 -1.631 8.498c.033.023.063.05.1.073l-1.79 1.778c-3.537-1.736-7.275-1.579-9.589.736s-2.471 6.052-.736 9.589l-1.96 1.96c-.466-.356-.918-.728-1.4-1.062a4.838 4.838 0 0 0 -3.849-.727 4.74 4.74 0 0 0 -1.623 8.493c.034.023.064.05.1.074l-1.784 1.786c-3.536-1.736-7.272-1.58-9.588.736s-2.472 6.052-.736 9.589l-1.96 1.96c-.467-.356-.919-.729-1.4-1.063a4.841 4.841 0 0 0 -3.849-.726 4.74 4.74 0 0 0 -1.626 8.489c.034.023.064.05.1.073l-1.782 1.783c-3.537-1.736-7.274-1.58-9.589.736s-2.471 6.052-.736 9.589l-1.96 1.96c-.467-.356-.918-.729-1.4-1.063a4.84 4.84 0 0 0 -3.848-.727 4.742 4.742 0 0 0 -1.624 8.494c.034.023.065.05.1.073l-21.822 21.814a4.7 4.7 0 0 0 3.315 8.033 4.647 4.647 0 0 0 3.322-1.383l21.824-21.819c.024.034.051.064.074.1a4.648 4.648 0 0 0 3.853 2.029 4.807 4.807 0 0 0 2.32-.6 4.736 4.736 0 0 0 2.32-3.053 4.832 4.832 0 0 0 -.726-3.846c-.335-.486-.707-.938-1.063-1.4l1.963-1.978a11.713 11.713 0 0 0 2.961 1 9.508 9.508 0 0 0 1.747.167 6.72 6.72 0 0 0 4.874-1.9 7.19 7.19 0 0 0 1.732-6.621 11.635 11.635 0 0 0 -1-2.961l1.786-1.785c.023.033.051.063.074.1a4.646 4.646 0 0 0 3.853 2.029 4.8 4.8 0 0 0 2.319-.6 4.735 4.735 0 0 0 2.321-3.052 4.835 4.835 0 0 0 -.727-3.847c-.334-.486-.706-.937-1.062-1.4l1.967-1.967a11.68 11.68 0 0 0 2.96 1 9.527 9.527 0 0 0 1.748.167 6.72 6.72 0 0 0 4.874-1.9 7.19 7.19 0 0 0 1.732-6.622 11.677 11.677 0 0 0 -1-2.961l1.789-1.788c.023.034.05.064.073.1a4.65 4.65 0 0 0 3.854 2.028 4.792 4.792 0 0 0 2.319-.6 4.735 4.735 0 0 0 2.321-3.052 4.839 4.839 0 0 0 -.727-3.847c-.334-.485-.707-.937-1.063-1.4l1.963-1.962a10.745 10.745 0 0 0 4.676 1.174 6.781 6.781 0 0 0 4.907-1.911 7.187 7.187 0 0 0 1.733-6.621 11.7 11.7 0 0 0 -1-2.961l1.789-1.788c.023.034.05.064.073.1a4.651 4.651 0 0 0 3.854 2.029 4.8 4.8 0 0 0 2.319-.6 4.735 4.735 0 0 0 2.32-3.053 4.832 4.832 0 0 0 -.726-3.846c-.334-.486-.707-.938-1.063-1.4l1.963-1.963a10.742 10.742 0 0 0 4.679 1.177 6.782 6.782 0 0 0 4.907-1.911 7.189 7.189 0 0 0 1.732-6.622 11.635 11.635 0 0 0 -1-2.961l5.68-5.68a4.661 4.661 0 0 0 1.378-3.329zm-112.95 109.94a1.18 1.18 0 0 1 -.843.353 1.2 1.2 0 0 1 -.847-2.053l22.09-22.09q.887.808 1.7 1.7zm29.46-21.682a1.242 1.242 0 0 1 -2.2.457c-.4-.589-.841-1.146-1.281-1.7a1.7 1.7 0 0 0 -.183-.243 29.306 29.306 0 0 0 -4.322-4.332 1.7 1.7 0 0 0 -.245-.184c-.555-.441-1.113-.879-1.7-1.281a1.243 1.243 0 0 1 .457-2.2 1.3 1.3 0 0 1 .3-.035 1.321 1.321 0 0 1 .756.24q1.2.827 2.317 1.754c.008.008.018.013.026.021a31.766 31.766 0 0 1 4.092 4.092c.009.01.016.021.025.03q.924 1.113 1.752 2.314a1.319 1.319 0 0 1 .204 1.064zm-.649-7.128q-.819-.878-1.7-1.7l1.246-1.246c.257.3.527.594.814.881s.582.554.884.812zm11.337-2.49a3.967 3.967 0 0 1 -3.505.767 10 10 0 0 1 -4.995-2.814c-2.858-2.859-3.8-6.752-2.048-8.5a3.332 3.332 0 0 1 2.421-.883 9.233 9.233 0 0 1 6.079 2.93 9.988 9.988 0 0 1 2.814 4.995 3.96 3.96 0 0 1 -.766 3.505zm1.239-10.091c-.258-.3-.526-.6-.811-.883s-.582-.558-.882-.815l1.545-1.545q.888.808 1.7 1.7zm8.913-1.139a1.242 1.242 0 0 1 -2.2.457c-.41-.6-.855-1.169-1.3-1.734-.016-.025-.037-.048-.055-.073a29.312 29.312 0 0 0 -4.575-4.573c-.021-.015-.04-.032-.061-.046-.565-.45-1.135-.9-1.736-1.307a1.242 1.242 0 0 1 .456-2.2 1.346 1.346 0 0 1 .3-.035 1.324 1.324 0 0 1 .756.24 31.828 31.828 0 0 1 8.215 8.214 1.319 1.319 0 0 1 .2 1.057zm-.649-7.128q-.819-.878-1.7-1.7l1.254-1.242c.256.3.526.595.813.882s.582.553.884.811zm11.339-2.488a3.967 3.967 0 0 1 -3.505.767 9.988 9.988 0 0 1 -4.995-2.814 11.326 11.326 0 0 1 -1.618-2.044l-.006-.009c-1.515-2.451-1.778-5.092-.424-6.447a3.33 3.33 0 0 1 2.421-.882 9.233 9.233 0 0 1 6.08 2.929 9.987 9.987 0 0 1 2.814 5 3.959 3.959 0 0 1 -.764 3.5zm1.239-10.09c-.258-.3-.526-.6-.811-.884s-.582-.557-.882-.814l1.545-1.546q.888.809 1.7 1.7zm8.915-1.139a1.241 1.241 0 0 1 -2.2.457c-.4-.587-.838-1.142-1.277-1.7a1.726 1.726 0 0 0 -.2-.27 29.327 29.327 0 0 0 -4.306-4.3 1.681 1.681 0 0 0 -.247-.186c-.555-.44-1.112-.879-1.7-1.28a1.223 1.223 0 0 1 -.335-1.6 1.21 1.21 0 0 1 .791-.6 1.29 1.29 0 0 1 .3-.036 1.326 1.326 0 0 1 .756.24 31.836 31.836 0 0 1 8.212 8.212 1.312 1.312 0 0 1 .209 1.063zm-.644-7.125q-.819-.878-1.7-1.7l1.246-1.246c.257.3.527.595.814.882s.584.554.884.811zm11.339-2.488c-1.75 1.749-5.642.81-8.5-2.048s-3.8-6.751-2.048-8.5a3.329 3.329 0 0 1 2.421-.882 9.23 9.23 0 0 1 6.08 2.93 9.974 9.974 0 0 1 2.813 5 3.957 3.957 0 0 1 -.767 3.497zm1.239-10.09c-.258-.3-.526-.6-.812-.884s-.581-.557-.881-.814l1.545-1.545q.888.809 1.7 1.7zm8.915-1.138a1.242 1.242 0 0 1 -2.2.457c-.409-.6-.854-1.166-1.3-1.729-.022-.034-.049-.065-.073-.1a29.373 29.373 0 0 0 -4.539-4.537c-.029-.021-.057-.046-.087-.066-.565-.449-1.132-.894-1.732-1.3a1.242 1.242 0 0 1 .456-2.2 1.3 1.3 0 0 1 .3-.036 1.322 1.322 0 0 1 .756.241 31.832 31.832 0 0 1 8.212 8.211 1.313 1.313 0 0 1 .206 1.056zm-.649-7.129q-.819-.876-1.7-1.7l1.246-1.246c.257.3.527.594.814.882s.584.554.884.811zm11.339-2.488c-1.354 1.354-3.99 1.092-6.438-.418l-.031-.019a11.278 11.278 0 0 1 -3.642-3.643l-.017-.027c-1.511-2.449-1.773-5.087-.419-6.44a3.324 3.324 0 0 1 2.42-.883 9.235 9.235 0 0 1 6.081 2.93 9.982 9.982 0 0 1 2.813 4.995 3.958 3.958 0 0 1 -.768 3.502zm6.41-15.267-5.172 5.171c-.258-.3-.526-.6-.811-.884s-.582-.557-.882-.814l5.172-5.173a1.18 1.18 0 0 1 .843-.353 1.189 1.189 0 0 1 .857.369 1.164 1.164 0 0 1 .347.841 1.192 1.192 0 0 1 -.354.843z"/></svg>