<svg id="Layer_1" enable-background="new 0 0 511.999 511.999" height="512" viewBox="0 0 511.999 511.999" width="512" xmlns="http://www.w3.org/2000/svg"><g><g><path d="m492.407 173.591-342.688-110.612c-3.313-1.313-6.806-1.979-10.391-1.979-37.093 0-72.048 14.535-98.426 40.929-26.376 26.393-40.902 61.365-40.902 98.478v222.368c0 15.563 12.656 28.225 28.214 28.225h455.572c15.557 0 28.213-12.661 28.213-28.225v-222.365c.003-12.277-7.875-23.055-19.592-26.819zm-8.621 257.409h-455.572c-4.529 0-8.214-3.69-8.214-8.225v-212.333h81.657c5.522 0 10-4.478 10-10s-4.478-10-10-10h-81.238c2.322-28.03 14.407-54.14 34.629-74.375 22.6-22.613 52.532-35.067 84.28-35.067 1.091 0 2.147.209 3.141.621.25.104.504.197.762.28l336.273 108.541h-287.847c-5.522 0-10 4.478-10 10s4.478 10 10 10h300.342v212.333c0 4.535-3.685 8.225-8.213 8.225z"/><path d="m106.406 250.126c-16.542 0-30 13.458-30 30s13.458 30 30 30 30-13.458 30-30-13.458-30-30-30zm0 40c-5.514 0-10-4.486-10-10s4.486-10 10-10 10 4.486 10 10-4.486 10-10 10z"/><path d="m315.406 342.126c-16.542 0-30 13.458-30 30s13.458 30 30 30 30-13.458 30-30-13.458-30-30-30zm0 40c-5.514 0-10-4.486-10-10s4.486-10 10-10 10 4.486 10 10-4.486 10-10 10z"/><path d="m419.906 260.125c-17.921 0-32.501 14.58-32.501 32.501s14.58 32.5 32.501 32.5 32.5-14.579 32.5-32.5-14.579-32.501-32.5-32.501zm0 45.001c-6.893 0-12.501-5.607-12.501-12.5s5.608-12.501 12.501-12.501 12.5 5.608 12.5 12.501-5.607 12.5-12.5 12.5z"/><path d="m297.406 284.626c0-22.056-17.944-40-40-40-22.057 0-40.001 17.944-40.001 40s17.944 40 40.001 40c22.056 0 40-17.944 40-40zm-40 20c-11.028 0-20.001-8.972-20.001-20s8.973-20 20.001-20 20 8.972 20 20-8.971 20-20 20z"/><path d="m168.906 340.125c-17.921 0-32.501 14.58-32.501 32.501s14.58 32.5 32.501 32.5 32.5-14.579 32.5-32.5-14.579-32.501-32.5-32.501zm0 45.001c-6.893 0-12.501-5.607-12.501-12.5s5.608-12.501 12.501-12.501 12.5 5.608 12.5 12.501-5.607 12.5-12.5 12.5z"/><path d="m78.416 359.628h-.007c-5.522 0-9.997 4.478-9.997 10s4.481 10 10.004 10 10-4.478 10-10-4.478-10-10-10z"/><path d="m174.916 304.128c5.522 0 10-4.478 10-10s-4.478-10-10-10h-.008c-5.522 0-9.996 4.478-9.996 10s4.482 10 10.004 10z"/><path d="m240.909 361.128h-.008c-5.522 0-9.996 4.478-9.996 10s4.481 10 10.004 10 10-4.478 10-10-4.477-10-10-10z"/><path d="m347.909 262.628c5.522 0 10-4.478 10-10s-4.478-10-10-10h-.008c-5.522 0-9.996 4.478-9.996 10s4.482 10 10.004 10z"/><path d="m414.409 363.628h-.008c-5.522 0-9.996 4.478-9.996 10s4.481 10 10.004 10 10-4.478 10-10-4.477-10-10-10z"/><path d="m350.909 304.628h-.008c-5.522 0-9.996 4.478-9.996 10s4.481 10 10.004 10 10-4.478 10-10-4.477-10-10-10z"/><path d="m123.908 135.628c5.522 0 10-4.478 10-10s-4.478-10-10-10h-.007c-5.522 0-9.997 4.478-9.997 10s4.482 10 10.004 10z"/><path d="m223.908 166.628c5.522 0 10-4.478 10-10s-4.478-10-10-10h-.007c-5.522 0-9.997 4.478-9.997 10s4.482 10 10.004 10z"/><path d="m146.661 210.442c5.522 0 10-4.478 10-10s-4.478-10-10-10h-.008c-5.522 0-9.996 4.478-9.996 10s4.482 10 10.004 10z"/></g></g></svg>