<svg id="Capa_1" enable-background="new 0 0 512 512" height="512" viewBox="0 0 512 512" width="512" xmlns="http://www.w3.org/2000/svg"><g><path d="m326.996 82.247c1.95 1.949 4.499 2.922 7.051 2.922 2.56 0 5.122-.981 7.078-2.936 3.905-3.905 3.891-10.252-.014-14.157s-10.238-3.905-14.143 0-3.905 10.238 0 14.143z"/><path d="m511.479 297.452c-5.697-41.447-27.196-78.19-60.536-103.459-18.595-14.094-39.632-23.672-61.793-28.401-3.579-20.215-10.3-39.656-20.041-57.88-2.604-4.871-8.663-6.71-13.534-4.106s-6.709 8.663-4.106 13.534c7.698 14.401 13.291 29.647 16.713 45.464-10.954-.807-22.072-.474-33.211 1.062-32.437 4.472-61.198 18.643-83.771 39.171-18.257-1.801-36.768-2.724-55.105-2.724-27.708.019-55 2.019-81.577 5.953-12.905 1.671-25.773 4.296-38.459 7.158-3.535.797-7.059 1.64-10.58 2.501-12.736 3.114-31.98 7.821-40.039 1.495-3.608-2.832-5.437-8.552-5.437-17.001 0-97.127 79.004-176.255 176.085-176.388 35.642.052 69.944 10.662 99.195 30.683 4.557 3.12 10.781 1.954 13.901-2.605 3.119-4.558 1.953-10.781-2.605-13.901-32.586-22.302-70.783-34.121-110.492-34.178-52.386.072-101.629 20.533-138.658 57.613-37.033 37.086-57.429 86.371-57.429 138.776 0 14.904 4.404 25.917 13.09 32.735 7.041 5.527 15.735 7.4 24.761 7.4 11.113 0 22.731-2.841 32.378-5.2 11.095-2.712 22.259-5.107 33.509-7.086-.939 17.999 6.796 27.948 12.26 32.666 5.894 5.089 13.364 8.058 21.741 8.882l-11.683 172.871c-1.102 16.234 4.662 31.991 16.229 44.369 12.533 13.413 30.227 21.105 48.544 21.105h10.574c18.317 0 36.011-7.692 48.544-21.105 11.567-12.379 17.33-28.136 16.229-44.368l-5.425-80.203c.639-.252 1.271-.502 1.89-.748.887-.352 1.751-.695 2.584-1.021 14.492-5.664 29.48-10.493 44.777-14.474l8.024 115.588c.929 13.374 7.392 25.575 18.199 34.355 9.737 7.912 21.949 12.185 34.361 12.185 2.443 0 4.895-.166 7.337-.501l8.676-1.191c14.859-2.044 28.352-10.256 37.019-22.532 8.034-11.379 10.958-24.873 8.234-37.995l-23.532-113.447c15.804-.302 31.539.296 47.024 1.832.909.09 1.849.188 2.814.288 14.519 1.51 34.403 3.577 46.051-8.465 6.518-6.742 8.965-16.402 7.27-28.707zm-387.337-72.543c23.496-3.165 47.554-4.779 71.959-4.795 12.526 0 25.139.45 37.691 1.325-5.154 6.49-9.789 13.386-13.868 20.615-7.282-1.698-15.465-2.623-23.823-2.623-13.236 0-25.76 2.226-35.283 6.276-12.848 5.491-25.312 5.447-31.749-.112-4.644-4.01-6.325-11.238-4.927-20.686zm122.078 218.931c.723 10.646-3.144 21.073-10.887 29.359-8.765 9.38-21.132 14.76-33.93 14.76h-10.574c-12.798 0-25.165-5.38-33.93-14.76-7.743-8.287-11.61-18.713-10.887-29.362l11.897-176.045c3.54-.922 7.135-2.14 10.755-3.687 6.984-2.97 16.985-4.674 27.438-4.674 5.197 0 10.238.425 14.882 1.207-9.826 24.426-13.628 51.643-9.793 79.538 1.695 12.31 6.664 20.949 14.769 25.678 4.74 2.766 9.919 3.836 15.222 3.836 3.295 0 6.637-.418 9.949-1.096zm166.046 6.174c1.586 7.639-.186 15.593-4.989 22.396-5.484 7.767-14.014 12.962-23.403 14.253l-8.678 1.191c-9.382 1.29-18.989-1.402-26.361-7.391-6.461-5.25-10.317-12.43-10.858-20.218l-8.249-118.828c19.205-4.017 38.767-6.71 58.344-8.034zm77.564-137.761c-4.882 5.048-20.359 3.438-29.607 2.477-.996-.104-1.967-.205-2.907-.298-66.415-6.585-137.222 3.165-199.379 27.457-.865.339-1.757.693-2.673 1.056-8.657 3.434-23.146 9.182-29.226 5.634-3.147-1.836-4.475-7.066-5.034-11.129-10.259-74.615 42.091-143.687 116.697-153.972 13.676-1.885 27.32-1.708 40.573.428.274.059.551.106.831.142 21.477 3.6 41.907 12.355 59.757 25.883 29.081 22.042 47.833 54.091 52.803 90.246.56 4.065.696 9.459-1.835 12.076z"/><path d="m123.667 99.016c0-5.523-4.477-10.001-10.001-10.001s-10.001 4.477-10.001 10.001v.028c0 5.523 4.477 9.986 10.001 9.986s10.001-4.491 10.001-10.014z"/><path d="m60.125 144.118v.028c0 5.523 4.477 9.986 10.001 9.986s10.001-4.491 10.001-10.015c0-5.523-4.477-10.001-10.001-10.001s-10.001 4.479-10.001 10.002z"/><path d="m124.978 165.288c5.523 0 10.001-4.506 10.001-10.029s-4.477-10.001-10.001-10.001c-5.523 0-10.001 4.477-10.001 10.001v.057c0 5.523 4.477 9.972 10.001 9.972z"/><path d="m315.692 241.437c0-5.523-4.477-10.001-10.001-10.001s-10.001 4.477-10.001 10.001v.029c0 5.523 4.477 9.986 10.001 9.986s10.001-4.492 10.001-10.015z"/><path d="m274.595 263.64c-5.523 0-10.001 4.477-10.001 10.001v.028c0 5.523 4.477 9.986 10.001 9.986s10.001-4.491 10.001-10.015c-.001-5.522-4.478-10-10.001-10z"/><path d="m321.566 273.704c-5.523 0-10.001 4.477-10.001 10v.057c0 5.523 4.477 9.972 10.001 9.972s10.001-4.506 10.001-10.029-4.478-10-10.001-10z"/></g></svg>