<svg id="Layer_1" height="512" viewBox="0 0 512 512" width="512" xmlns="http://www.w3.org/2000/svg" data-name="Layer 1"><path d="m40.24 76.585c17.878 41.82 52.681 65.467 93.169 65.467a113.989 113.989 0 0 0 31.717-4.654l10.309-2.986c.428-.124.837-.278 1.249-.429-9.329 10.288-12.916 23.475-8.815 34.195-26.478 29.021-42.563 69.306-45.411 113.967-2.887 45.286 7.964 90 30.553 125.893 23.529 37.393 61.6 68.451 104.439 85.211 23.423 9.163 47.165 13.751 70.036 13.751a156.065 156.065 0 0 0 56.307-10.191c9.509 9.621 27.194 11.9 39.429 4.2s17.833-24.628 13.275-37.363c29.746-28 47.972-68.8 51.459-115.444 3.429-45.876-8.1-93.634-31.629-131.026-22.6-35.92-58.231-65.1-100.321-82.176-41.547-16.851-84.842-19.84-122.444-8.542a27.005 27.005 0 0 0 -13.083-7.539c31.68-11.1 51.466-39.447 51.865-76.572.057-5.228 1.729-20.585 2.369-26.062a6 6 0 0 0 -7.885-6.379c-.195.066-19.573 6.624-25.99 8.115-30.038 6.984-52.658 26.825-61.874 51.727-1.481-17.364.009-36.989 8-56.471a6 6 0 0 0 -11.1-4.554 132.2 132.2 0 0 0 -9.21 58.909 96.916 96.916 0 0 0 -27.262-22.14c-21.888-12.01-48.4-16.168-74.657-11.7-8.6 1.461-35.438 3.352-35.708 3.371a6 6 0 0 0 -4.818 8.913c.123.224 12.749 22.83 16.031 30.509zm203.315-46.875c3.973-.923 11.935-3.437 18.215-5.483-.653 6.292-1.383 14.116-1.425 17.991-.407 37.841-24.267 65.011-60.787 69.221l-8.13.937a3.563 3.563 0 0 1 -2.645-.723 3.162 3.162 0 0 1 -.577-.614q-.266-.732-.532-1.49l-.861-7.615c-3.77-33.334 20.093-63.705 56.742-72.224zm-63.393 136.352c-5.277-8.387.268-21.814 12.116-29.8a5.733 5.733 0 0 0 1.979-1.228 35.11 35.11 0 0 1 17.5-5.18c6.333 0 11.729 2.275 14.562 6.776a6 6 0 0 0 6.967 2.5c35.819-11.88 77.8-9.4 118.205 6.992 39.779 16.135 73.4 43.639 94.675 77.446 22.192 35.268 33.061 80.37 29.819 123.742-3.381 45.236-21.418 84.444-50.788 110.4a6 6 0 0 0 -1.097 7.69c4.574 7.269.839 20.352-7.265 25.453s-21.516 2.806-26.09-4.464a6 6 0 0 0 -7.412-2.332c-36.11 15.247-79.262 14.542-121.508-1.984-40.5-15.844-76.462-45.158-98.654-80.426-21.257-33.781-31.461-75.949-28.733-118.738 2.762-43.432 18.734-82.309 44.962-109.485a6 6 0 0 0 .762-7.362zm-113.421-120.445c48-8.152 91.72 15.236 105.723 55.922.764 2.754 1.562 5.367 2.367 7.828l1.758 6.1a6.156 6.156 0 0 1 -4.493 7.418l-10.308 2.986c-47.259 13.69-90.638-7.511-110.513-54-2.212-5.173-7.953-15.907-12.067-23.442 8.886-.707 21.709-1.823 27.533-2.812z"/><path d="m225.775 425.669c3.291 2.352 6.731 4.617 10.224 6.734a6 6 0 0 0 6.22-10.262c-3.236-1.962-6.422-4.06-9.47-6.236a6 6 0 1 0 -6.974 9.764z"/><path d="m168.95 265.092a6 6 0 0 0 -11.973-.808c-1.683 24.928-.959 88.2 42.026 137.193 1.718 1.959 3.509 3.9 5.323 5.768a6 6 0 0 0 8.61-8.36c-1.674-1.724-3.327-3.514-4.913-5.322-40.016-45.612-40.655-105.038-39.073-128.471z"/></svg>