<svg id="Layer_3" enable-background="new 0 0 64 64" height="512" viewBox="0 0 64 64" width="512" xmlns="http://www.w3.org/2000/svg"><g><path d="m63 5.586v-.172c0-1.18-.459-2.288-1.293-3.122s-1.942-1.292-3.121-1.292h-.172c-1.179 0-2.287.459-3.121 1.293l-4.441 4.441c-1.504-.758-3.457-.543-4.68.68l-1.32 1.32c-.837-.422-1.805-.547-2.719-.355-2.637-2.781-6.287-4.379-10.133-4.379-4.229 0-8.188 1.886-10.858 5.175-1.458 1.796-3.693 2.825-6.131 2.825-.003 0-.008 0-.011 0-1.087 0-2.188.13-3.271.388-5.669 1.349-9.94 6.13-10.628 11.898-.614 5.17 1.642 10.224 5.888 13.19 1.023.715 1.802 1.694 2.312 2.832-.676.739-1.058 1.684-1.058 2.692 0 .663.178 1.293.48 1.863l-1.309 1.309c-1.27 1.27-1.487 3.18-.69 4.69l-4.431 4.431c-.834.834-1.293 1.942-1.293 3.121v.172c0 1.179.459 2.287 1.293 3.121s1.942 1.293 3.121 1.293h.172c1.179 0 2.287-.459 3.121-1.293l4.431-4.431c.583.308 1.219.48 1.862.48 1.024 0 2.049-.39 2.828-1.17l1.309-1.309c.57.302 1.2.48 1.863.48 1.068 0 2.073-.416 2.828-1.171l2.625-2.625c.081.088.167.17.238.268 2.655 3.65 6.841 5.771 11.315 5.771.254 0 .51-.007.766-.021 5.118-.275 9.705-3.495 11.971-8.401.391-.847.694-1.714.901-2.576.73-3.037 2.543-5.646 5.104-7.349 4.383-2.914 6.745-7.988 6.165-13.242-.419-3.799-2.494-7.32-5.594-9.63.573-1.149.558-2.504-.042-3.642l4.431-4.431c.833-.834 1.292-1.942 1.292-3.122zm-12.586 3.242 4.758 4.758c.779.78.779 2.048 0 2.828l-1.172 1.172-7.586-7.586 1.172-1.172c.756-.755 2.072-.755 2.828 0zm-42.28 27.01c-3.64-2.544-5.573-6.879-5.046-11.315.589-4.939 4.247-9.034 9.104-10.189.932-.222 1.876-.334 2.808-.334h.011c3.044 0 5.844-1.299 7.684-3.564 2.288-2.819 5.681-4.436 9.305-4.436 3.1 0 6.054 1.206 8.276 3.33-.033.031-.072.052-.104.084l-29.381 29.381c-.65-1.172-1.547-2.182-2.657-2.957zm-.841 24.455c-.456.456-1.063.707-1.707.707h-.172c-.645 0-1.251-.251-1.707-.707s-.707-1.063-.707-1.707v-.172c0-.645.251-1.251.707-1.707l4.293-4.293 3.586 3.586zm6.293-5.121-4.758-4.758c-.779-.779-.779-2.049 0-2.828l1.172-1.172 7.586 7.586-1.172 1.172c-.779.779-2.049.779-2.828 0zm8.828-2c-.779.779-2.049.779-2.828 0l-8.758-8.758c-.779-.779-.779-2.049 0-2.828l27.672-27.672 6.793 6.793 1.414-1.414-6.793-6.793 1.672-1.672c.378-.377.88-.585 1.414-.585s1.036.208 1.414.585l8.758 8.758c.779.78.779 2.048 0 2.828l-27.672 27.672-6.793-6.793-1.414 1.414 6.793 6.793zm38.51-26.541c.498 4.507-1.527 8.859-5.284 11.356-2.981 1.982-5.092 5.018-5.941 8.547-.177.735-.437 1.478-.772 2.206-1.924 4.167-5.952 7.01-10.262 7.241-4.089.239-7.95-1.622-10.356-4.928-.133-.183-.291-.341-.445-.502l26.723-26.723c1.269-1.269 1.486-3.179.69-4.69l.796-.796c2.688 1.981 4.49 5.015 4.851 8.289zm.076-21.045c0 .645-.251 1.251-.707 1.707l-4.293 4.293-3.586-3.586 4.293-4.293c.456-.456 1.063-.707 1.707-.707h.172c.645 0 1.251.251 1.707.708.456.455.707 1.061.707 1.706z"/><path d="m48 21.586h2v2.828h-2z" transform="matrix(.707 -.707 .707 .707 -1.912 41.385)"/><path d="m14 39.586h2v2.828h-2z" transform="matrix(.707 -.707 .707 .707 -24.598 22.615)"/><path d="m15 19v-2c-4.963 0-9 4.038-9 9h2c0-3.86 3.141-7 7-7z"/></g></svg>