<svg id="Layer_3" enable-background="new 0 0 64 64" height="512" viewBox="0 0 64 64" width="512" xmlns="http://www.w3.org/2000/svg"><g><path d="m19.448 46.535c-.346.378-.35.956-.009 1.339l7.813 8.79c.194.218.468.336.748.336.119 0 .239-.021.355-.065.388-.148.645-.52.645-.935 0-1.654 1.346-3 3-3s3 1.346 3 3c0 .415.257.787.645.935.389.146.827.04 1.103-.271l7.813-8.791c.341-.383.337-.961-.009-1.339-3.215-3.516-7.79-5.534-12.552-5.534-4.763 0-9.338 2.018-12.552 5.535zm17.086 7.359c-.573-1.229-1.636-2.18-2.932-2.62l2.255-3.758-1.715-1.029-2.735 4.558c-1.749.208-3.226 1.314-3.942 2.85l-5.915-6.655c.888-.861 1.882-1.588 2.94-2.2l1.677 2.516 1.664-1.109-1.54-2.31c1.49-.614 3.08-.977 4.708-1.087v2.95h2v-2.951c1.627.11 3.217.473 4.708 1.087l-1.54 2.31 1.664 1.109 1.677-2.516c1.058.612 2.052 1.339 2.94 2.2z"/><path d="m50 29c3.859 0 7-3.141 7-7 0-1.654-1.346-3-3-3h-3.489l-9.773-13.532c-2.02-2.798-5.287-4.468-8.738-4.468s-6.718 1.67-8.738 4.468l-9.773 13.532h-3.489c-1.654 0-3 1.346-3 3 0 3.859 3.141 7 7 7h14v3.082c-2.256 1.31-3.811 3.687-3.976 6.437-8.209 3.291-14.024 11.56-14.024 20.984 0 1.929 1.568 3.497 3.497 3.497h37.006c1.929 0 3.497-1.568 3.497-3.497v-.503c0-6.149-2.602-12.062-7.137-16.22-2.054-1.883-4.384-3.326-6.89-4.301-.177-2.734-1.729-5.094-3.974-6.397v-3.082zm-25.117-22.36c1.646-2.28 4.306-3.64 7.117-3.64s5.471 1.36 7.117 3.64l8.927 12.36h-32.088zm-15.883 15.36c0-.552.448-1 1-1h44c.552 0 1 .448 1 1 0 2.757-2.243 5-5 5h-36c-2.757 0-5-2.243-5-5zm43 37v.503c0 .825-.672 1.497-1.497 1.497h-37.006c-.825 0-1.497-.672-1.497-1.497 0-10.565 7.997-19.537 18.207-20.425.607-.053 1.213-.079 1.813-.079 5.022 0 9.758 1.832 13.491 5.255 4.124 3.781 6.489 9.155 6.489 14.746zm-14.124-21.216c-2.504-.689-5.147-.934-7.842-.698-1.344.117-2.651.368-3.914.727.552-2.742 2.978-4.813 5.88-4.813 2.892 0 5.312 2.056 5.876 4.784zm-3.876-6.521c-.641-.166-1.308-.263-2-.263s-1.359.097-2 .263v-2.263h4z"/><circle cx="48" cy="57" r="2"/><circle cx="16" cy="57" r="2"/><path d="m33 7h2v2h-2z"/><path d="m37 12h2v2h-2z"/><path d="m41 15h2v2h-2z"/><path d="m27 9h2v2h-2z"/><path d="m23 14h2v2h-2z"/><path d="m31 13h2v2h-2z"/></g></svg>