<svg height="512" viewBox="0 0 64 64" width="512" xmlns="http://www.w3.org/2000/svg"><path d="m61 44h-14v-3a1 1 0 0 0 -1-1h-2v-2h-2v2h-2a1 1 0 0 0 -1 1v3h-3v-3a1 1 0 0 0 -1-1h-2v-2h-2v2h-2a1 1 0 0 0 -1 1v3h-2v-3a1 1 0 0 0 -1-1h-2v-2h-2v2h-2a1 1 0 0 0 -1 1v3h-15a1 1 0 0 0 -1 1v16a1 1 0 0 0 1 1h58a1 1 0 0 0 1-1v-16a1 1 0 0 0 -1-1zm-20-2h4v2h-4zm-11 0h4v2h-4zm-10 0h4v2h-4zm40 18h-56v-14h56z"/><path d="m14 47a6 6 0 1 0 6 6 6.006 6.006 0 0 0 -6-6zm0 10a3.992 3.992 0 0 1 -1-7.858v1.858h2v-1.858a3.992 3.992 0 0 1 -1 7.858z"/><path d="m30.2 12h2c0-.411.134-.571.522-.976a3.121 3.121 0 0 0 0-4.719c-.388-.4-.522-.565-.522-.975s.134-.569.521-.973a3.142 3.142 0 0 0 1.079-2.357h-2c0 .409-.134.569-.521.973a3.117 3.117 0 0 0 0 4.716c.388.4.522.565.522.976s-.134.571-.522.975a3.149 3.149 0 0 0 -1.079 2.36z"/><path d="m45.2 12h2c0-.411.134-.571.522-.976a3.121 3.121 0 0 0 0-4.719c-.388-.4-.522-.565-.522-.975s.134-.569.521-.973a3.142 3.142 0 0 0 1.079-2.357h-2c0 .409-.134.569-.521.973a3.117 3.117 0 0 0 0 4.716c.388.4.522.565.522.976s-.134.571-.522.975a3.149 3.149 0 0 0 -1.079 2.36z"/><path d="m15.2 12h2c0-.411.134-.571.522-.976a3.121 3.121 0 0 0 0-4.719c-.388-.4-.522-.565-.522-.975s.134-.569.521-.973a3.142 3.142 0 0 0 1.079-2.357h-2c0 .409-.134.569-.521.973a3.117 3.117 0 0 0 0 4.716c.388.4.522.565.522.976s-.134.571-.522.975a3.149 3.149 0 0 0 -1.079 2.36z"/><path d="m7 27h2v6a3 3 0 0 0 3 3h40a3 3 0 0 0 3-3v-6h2a3 3 0 0 0 3-3v-5a3 3 0 0 0 -3-3h-2v-1a1 1 0 0 0 -1-1h-44a1 1 0 0 0 -1 1v1h-2a3 3 0 0 0 -3 3v5a3 3 0 0 0 3 3zm50-9a1 1 0 0 1 1 1v5a1 1 0 0 1 -1 1h-2v-7zm-4 0h-38v2h38v13a1 1 0 0 1 -1 1h-40a1 1 0 0 1 -1-1v-13h2v-2h-2v-2h42zm-47 1a1 1 0 0 1 1-1h2v7h-2a1 1 0 0 1 -1-1z"/><path d="m47 48h11v2h-11z"/><path d="m47 52h9v2h-9z"/><path d="m47 56h7v2h-7z"/></svg>