<?xml version="1.0" encoding="iso-8859-1"?>
<!-- Generator: Adobe Illustrator 19.0.0, SVG Export Plug-In . SVG Version: 6.00 Build 0)  -->
<svg version="1.1" id="Capa_1" xmlns="http://www.w3.org/2000/svg" xmlns:xlink="http://www.w3.org/1999/xlink" x="0px" y="0px"
	 viewBox="0 0 512 512" style="enable-background:new 0 0 512 512;" xml:space="preserve">
<g>
	<g>
		<path d="M253.298,48.615c-4.142,0-7.5,3.358-7.5,7.5v19.447c0,4.142,3.358,7.5,7.5,7.5c4.142,0,7.5-3.358,7.5-7.5V56.115
			C260.798,51.974,257.44,48.615,253.298,48.615z"/>
	</g>
</g>
<g>
	<g>
		<path d="M253.298,368.413c-4.142,0-7.5,3.358-7.5,7.5v19.447c0,4.142,3.358,7.5,7.5,7.5c4.142,0,7.5-3.358,7.5-7.5v-19.447
			C260.798,371.771,257.44,368.413,253.298,368.413z"/>
	</g>
</g>
<g>
	<g>
		<path d="M378.543,100.493c-2.929-2.929-7.678-2.929-10.607,0l-13.751,13.751c-2.929,2.929-2.929,7.678,0,10.607
			c2.929,2.929,7.678,2.929,10.607,0l13.751-13.751C381.472,108.17,381.472,103.423,378.543,100.493z"/>
	</g>
</g>
<g>
	<g>
		<path d="M152.412,326.624c-2.929-2.929-7.678-2.929-10.607,0l-13.751,13.751c-2.929,2.929-2.929,7.678,0,10.607
			c2.929,2.929,7.678,2.929,10.607,0l13.751-13.751C155.341,334.302,155.341,329.553,152.412,326.624z"/>
	</g>
</g>
<g>
	<g>
		<path d="M422.921,218.238h-19.447c-4.142,0-7.5,3.358-7.5,7.5c0,4.142,3.358,7.5,7.5,7.5h19.447c4.142,0,7.5-3.358,7.5-7.5
			C430.421,221.595,427.063,218.238,422.921,218.238z"/>
	</g>
</g>
<g>
	<g>
		<path d="M103.123,218.238H83.676c-4.142,0-7.5,3.358-7.5,7.5c0,4.142,3.358,7.5,7.5,7.5h19.447c4.142,0,7.5-3.358,7.5-7.5
			C110.623,221.595,107.265,218.238,103.123,218.238z"/>
	</g>
</g>
<g>
	<g>
		<path d="M378.543,340.375l-13.751-13.751c-2.929-2.929-7.678-2.929-10.607,0c-2.929,2.929-2.929,7.678,0,10.607l13.751,13.751
			c2.929,2.929,7.678,2.929,10.607,0C381.472,348.053,381.472,343.304,378.543,340.375z"/>
	</g>
</g>
<g>
	<g>
		<path d="M152.412,114.245l-13.751-13.751c-2.929-2.929-7.678-2.929-10.607,0s-2.929,7.678,0,10.607l13.751,13.751
			c2.929,2.929,7.678,2.929,10.607,0C155.341,121.923,155.341,117.173,152.412,114.245z"/>
	</g>
</g>
<g>
	<g>
		<path d="M345.959,160.385c-12.549-17.763-29.659-31.379-49.635-39.567c-7.16-16.685-23.748-28.404-43.025-28.404
			c-19.303,0-35.911,11.748-43.056,28.469c-46.466,21.3-70.325,59.526-70.325,104.854c0,23.477,7.114,46.003,20.572,65.143
			c12.553,17.854,29.721,31.544,49.779,39.768c7.158,16.69,23.749,28.412,43.029,28.412c19.28,0,35.87-11.722,43.029-28.411
			c20.058-8.225,37.226-21.915,49.78-39.769c13.458-19.14,20.571-41.667,20.571-65.143
			C366.678,202.169,359.513,179.57,345.959,160.385z M206.502,312.289c-13.356-7.216-24.875-17.426-33.742-30.037
			c-11.672-16.601-17.842-36.144-17.842-56.516c0-36.457,19.97-69.475,51.584-86.55c0,0.008-0.001,0.016-0.001,0.024v173.053
			C206.501,312.272,206.502,312.281,206.502,312.289z M333.836,282.253c-8.867,12.61-20.386,22.82-33.742,30.038
			c0-0.009,0.001-0.018,0.001-0.026V294.96c0-4.142-3.358-7.5-7.5-7.5c-4.142,0-7.5,3.358-7.5,7.5v17.303
			c0,17.533-14.264,31.796-31.797,31.796c-17.533,0-31.797-14.264-31.797-31.796V139.211c0-17.533,14.264-31.797,31.797-31.797
			c17.533,0,31.797,14.264,31.797,31.797v120.765c0,4.142,3.358,7.5,7.5,7.5c4.142,0,7.5-3.358,7.5-7.5V139.211
			c0-0.003,0-0.005,0-0.008c31.315,17.009,51.583,50.264,51.583,86.534C351.678,246.108,345.509,265.651,333.836,282.253z"/>
	</g>
</g>
<g>
	<g>
		<path d="M468.43,414.352V226.946c0-118.624-96.507-215.132-215.131-215.132S38.167,108.321,38.167,226.946V387.49
			c0,4.142,3.358,7.5,7.5,7.5c4.142,0,7.5-3.358,7.5-7.5V226.946c0-110.353,89.779-200.132,200.132-200.132
			S453.43,116.592,453.43,226.946v187.407H42.917C19.252,414.352,0,433.604,0,457.269c0,23.665,19.252,42.917,42.917,42.917h426.166
			c23.665,0,42.917-19.253,42.917-42.917C512,414.135,468.43,414.352,468.43,414.352z M469.083,485.186H42.917
			C27.523,485.186,15,472.663,15,457.269s12.523-27.917,27.917-27.917h426.166c15.394,0,27.917,12.523,27.917,27.917
			S484.477,485.186,469.083,485.186z"/>
	</g>
</g>
<g>
	<g>
		<path d="M253.298,118.063c-12.407,0-22.5,10.093-22.5,22.5c0,12.407,10.094,22.5,22.5,22.5c12.407,0,22.5-10.093,22.5-22.5
			C275.798,128.155,265.705,118.063,253.298,118.063z M253.298,148.063c-4.136,0-7.5-3.364-7.5-7.5c0-4.136,3.365-7.5,7.5-7.5
			c4.136,0,7.5,3.364,7.5,7.5C260.798,144.699,257.434,148.063,253.298,148.063z"/>
	</g>
</g>
<g>
</g>
<g>
</g>
<g>
</g>
<g>
</g>
<g>
</g>
<g>
</g>
<g>
</g>
<g>
</g>
<g>
</g>
<g>
</g>
<g>
</g>
<g>
</g>
<g>
</g>
<g>
</g>
<g>
</g>
</svg>
